<svg xmlns="http://www.w3.org/2000/svg" viewBox="0 0 512 512" role="img" aria-label="Estacao Climática">
  <defs>
    <linearGradient id="bg" x1="72" y1="56" x2="440" y2="464" gradientUnits="userSpaceOnUse">
      <stop offset="0" stop-color="#173c67"/>
      <stop offset="0.58" stop-color="#111827"/>
      <stop offset="1" stop-color="#06304a"/>
    </linearGradient>
    <radialGradient id="glow" cx="0" cy="0" r="1" gradientUnits="userSpaceOnUse" gradientTransform="translate(176 176) rotate(90) scale(138)">
      <stop offset="0" stop-color="#facc15" stop-opacity="0.35"/>
      <stop offset="1" stop-color="#facc15" stop-opacity="0"/>
    </radialGradient>
    <linearGradient id="series" x1="78" y1="344" x2="428" y2="256" gradientUnits="userSpaceOnUse">
      <stop offset="0" stop-color="#38bdf8"/>
      <stop offset="0.46" stop-color="#22c55e"/>
      <stop offset="1" stop-color="#f97316"/>
    </linearGradient>
  </defs>
  <rect width="512" height="512" rx="116" fill="url(#bg)"/>
  <circle cx="176" cy="176" r="94" fill="url(#glow)"/>
  <circle cx="176" cy="176" r="54" fill="#facc15"/>
  <path d="M176 66v38M176 248v38M66 176h38M248 176h38M98 98l27 27M227 227l27 27M254 98l-27 27M125 227l-27 27" stroke="#67e8f9" stroke-width="18" stroke-linecap="round"/>
  <path d="M366 102a76 76 0 1 0 64 122 88 88 0 1 1-64-122Z" fill="#a78bfa"/>
  <path d="M82 358c40 0 49-64 92-64 45 0 51 64 96 64 47 0 54-88 158-88" fill="none" stroke="url(#series)" stroke-width="38" stroke-linecap="round" stroke-linejoin="round"/>
  <path d="M82 424h348" stroke="#38bdf8" stroke-width="24" stroke-linecap="round" opacity="0.72"/>
</svg>
