<svg xmlns="http://www.w3.org/2000/svg" viewBox="0 0 64 64" role="img" aria-label="Estacao Climática">
  <defs>
    <linearGradient id="bg" x1="10" y1="8" x2="54" y2="58" gradientUnits="userSpaceOnUse">
      <stop offset="0" stop-color="#12345c"/>
      <stop offset="0.58" stop-color="#0f172a"/>
      <stop offset="1" stop-color="#06253a"/>
    </linearGradient>
    <linearGradient id="line" x1="12" y1="42" x2="52" y2="28" gradientUnits="userSpaceOnUse">
      <stop offset="0" stop-color="#38bdf8"/>
      <stop offset="0.5" stop-color="#22c55e"/>
      <stop offset="1" stop-color="#facc15"/>
    </linearGradient>
  </defs>
  <rect width="64" height="64" rx="16" fill="url(#bg)"/>
  <circle cx="22" cy="22" r="7" fill="#facc15"/>
  <path d="M22 8v5M22 31v5M8 22h5M31 22h5M12.1 12.1l3.5 3.5M28.4 28.4l3.5 3.5M31.9 12.1l-3.5 3.5M15.6 28.4l-3.5 3.5" stroke="#67e8f9" stroke-width="2.3" stroke-linecap="round"/>
  <path d="M45.5 15a9.5 9.5 0 1 0 7.7 15 11 11 0 1 1-7.7-15Z" fill="#a78bfa"/>
  <path d="M12 45c5.2 0 6-8 11.5-8s6.3 8 11.8 8S41.5 34 52 34" fill="none" stroke="url(#line)" stroke-width="5" stroke-linecap="round" stroke-linejoin="round"/>
  <path d="M12 52h40" stroke="#38bdf8" stroke-width="3" stroke-linecap="round" opacity="0.75"/>
</svg>
